name rise49.5252peak65.1548fall88.8305.mot
datacolumns 19
datarows 17
range 20.64491400000000 20.67158200000000
endheader
time	ground_force1_vx	ground_force1_vy	ground_force1_vz	ground_force1_px	ground_force1_py	ground_force1_pz	ground_force2_vx	ground_force2_vy	ground_force2_vz	ground_force2_px	ground_force2_py	ground_force2_pz	ground_torque1_x	ground_torque1_y	ground_torque1_z	ground_torque2_x	ground_torque2_y	ground_torque2_z	
20.64491400000000	-46.83819500000000	790.39006300000005	62.70009200000000	0.15207600000000	0.00000000000000	0.12038800000000	-7.38481900000000	99.74533599999999	12.53939100000000	0.41587000000000	0.00000000000000	-0.06695800000000	0.00000000000000	28.78152800000000	0.00000000000000	0.00000000000000	9.74101300000000	0.00000000000000	
20.64658700000000	-47.09977500000000	786.79910099999995	62.35449500000000	0.15152900000000	0.00000000000000	0.12030600000000	-7.08597300000000	103.83588800000000	12.41672900000000	0.41680600000000	0.00000000000000	-0.06735800000000	0.00000000000000	28.62326300000000	0.00000000000000	0.00000000000000	9.70731200000000	0.00000000000000	
20.64824600000000	-47.37508500000000	783.09167500000001	61.97949100000000	0.15099500000000	0.00000000000000	0.12021800000000	-6.75573600000000	108.01628500000000	12.26696200000000	0.41775600000000	0.00000000000000	-0.06774600000000	0.00000000000000	28.46375300000000	0.00000000000000	0.00000000000000	9.65641900000000	0.00000000000000	
20.64991900000000	-47.66444800000000	779.26906699999995	61.57519100000000	0.15047500000000	0.00000000000000	0.12012400000000	-6.39726900000000	112.30813200000000	12.09446300000000	0.41871800000000	0.00000000000000	-0.06812100000000	0.00000000000000	28.30321500000000	0.00000000000000	0.00000000000000	9.59155700000000	0.00000000000000	
20.65158400000000	-47.96814300000000	775.33258999999998	61.14176900000000	0.14996800000000	0.00000000000000	0.12002400000000	-6.01211700000000	116.72373100000000	11.90138900000000	0.41968900000000	0.00000000000000	-0.06848500000000	0.00000000000000	28.14185800000000	0.00000000000000	0.00000000000000	9.51429800000000	0.00000000000000	
20.65327400000000	-48.28640000000000	771.28358700000001	60.67946200000000	0.14947500000000	0.00000000000000	0.11991800000000	-5.60041000000000	121.26689100000000	11.68793900000000	0.42066700000000	0.00000000000000	-0.06884000000000	0.00000000000000	27.97988200000000	0.00000000000000	0.00000000000000	9.42475500000000	0.00000000000000	
20.65491200000000	-48.61939900000000	767.12342400000000	60.18856900000000	0.14899700000000	0.00000000000000	0.11980500000000	-5.16113600000000	125.93419500000000	11.45271900000000	0.42164800000000	0.00000000000000	-0.06918500000000	0.00000000000000	27.81747300000000	0.00000000000000	0.00000000000000	9.32184000000000	0.00000000000000	
20.65658300000000	-48.96726700000000	762.85347999999999	59.66944700000000	0.14853400000000	0.00000000000000	0.11968600000000	-4.69245700000000	130.71655300000000	11.19315900000000	0.42263000000000	0.00000000000000	-0.06952200000000	0.00000000000000	27.65480700000000	0.00000000000000	0.00000000000000	9.20356500000000	0.00000000000000	
20.65826000000000	-49.33007700000000	758.47514799999999	59.12251600000000	0.14808500000000	0.00000000000000	0.11956100000000	-4.19202600000000	135.60087600000000	10.90593600000000	0.42361000000000	0.00000000000000	-0.06985100000000	0.00000000000000	27.49204500000000	0.00000000000000	0.00000000000000	9.06736000000000	0.00000000000000	
20.65991400000000	-49.70784400000000	753.98982300000000	58.54825400000000	0.14765100000000	0.00000000000000	0.11943000000000	-3.65729200000000	140.57171500000001	10.58738600000000	0.42458300000000	0.00000000000000	-0.07017300000000	0.00000000000000	27.32933400000000	0.00000000000000	0.00000000000000	8.91037500000000	0.00000000000000	
20.66158200000000	-50.10052600000000	749.39890000000003	57.94719400000000	0.14723200000000	0.00000000000000	0.11929300000000	-3.08576800000000	145.61275499999999	10.23386500000000	0.42554600000000	0.00000000000000	-0.07048800000000	0.00000000000000	27.16680800000000	0.00000000000000	0.00000000000000	8.72974900000000	0.00000000000000	
20.66325600000000	-50.50801700000000	744.70376899999997	57.31992700000000	0.14682600000000	0.00000000000000	0.11914900000000	-2.47524300000000	150.70809100000000	9.84204700000000	0.42649500000000	0.00000000000000	-0.07079800000000	0.00000000000000	27.00458300000000	0.00000000000000	0.00000000000000	8.52283800000000	0.00000000000000	
20.66491900000000	-50.93014800000000	739.90580599999998	56.66709300000000	0.14643500000000	0.00000000000000	0.11899800000000	-1.82394900000000	155.84321900000000	9.40914500000000	0.42742600000000	0.00000000000000	-0.07110300000000	0.00000000000000	26.84276200000000	0.00000000000000	0.00000000000000	8.28738500000000	0.00000000000000	
20.66658000000000	-51.36668400000000	735.00637400000005	55.98938800000000	0.14605800000000	0.00000000000000	0.11884200000000	-1.13066500000000	161.00573299999999	8.93306000000000	0.42833500000000	0.00000000000000	-0.07140200000000	0.00000000000000	26.68142900000000	0.00000000000000	0.00000000000000	8.02163600000000	0.00000000000000	
20.66825900000000	-51.81732200000000	730.00681399999996	55.28755300000000	0.14569300000000	0.00000000000000	0.11868000000000	-0.39476300000000	166.18573799999999	8.41245800000000	0.42921900000000	0.00000000000000	-0.07169700000000	0.00000000000000	26.52065400000000	0.00000000000000	0.00000000000000	7.72440600000000	0.00000000000000	
20.66991300000000	-52.28169000000000	724.90844200000004	54.56237800000000	0.14534000000000	0.00000000000000	0.11851100000000	0.38378300000000	171.37599800000001	7.84678200000000	0.43007200000000	0.00000000000000	-0.07198800000000	0.00000000000000	26.36048700000000	0.00000000000000	0.00000000000000	7.39509400000000	0.00000000000000	
20.67158200000000	-52.75934200000000	719.71254799999997	53.81469500000000	0.14499900000000	0.00000000000000	0.11833600000000	1.20443300000000	176.57186100000001	7.23621300000000	0.43089200000000	0.00000000000000	-0.07227500000000	0.00000000000000	26.20096300000000	0.00000000000000	0.00000000000000	7.03365600000000	0.00000000000000	
